<svg xmlns="http://www.w3.org/2000/svg" width="24" height="24" fill="none" viewBox="0 0 24 24" id="playlist">
  <path fill="#111" fill-rule="evenodd" d="M11.75 14C11.75 14.4142 11.4142 14.75 11 14.75H3C2.58579 14.75 2.25 14.4142 2.25 14 2.25 13.5858 2.58579 13.25 3 13.25H11C11.4142 13.25 11.75 13.5858 11.75 14zM11.75 18C11.75 18.4142 11.4142 18.75 11 18.75H3C2.58579 18.75 2.25 18.4142 2.25 18 2.25 17.5858 2.58579 17.25 3 17.25H11C11.4142 17.25 11.75 17.5858 11.75 18zM19.2053 13.4431L19.2947 13.4947C20.0836 13.9501 20.7374 14.3276 21.2037 14.681 21.6788 15.041 22.105 15.4808 22.2158 16.1093 22.2614 16.3678 22.2614 16.6322 22.2158 16.8907 22.105 17.5193 21.6788 17.959 21.2037 18.319 20.7374 18.6724 20.0836 19.0499 19.2947 19.5053L19.2053 19.5569C18.4165 20.0124 17.7626 20.3899 17.2235 20.617 16.6741 20.8485 16.0802 20.9977 15.4805 20.7794 15.2338 20.6896 15.0048 20.5574 14.8037 20.3887 14.3148 19.9784 14.1471 19.3894 14.0728 18.798 14 18.2175 14 17.4625 14 16.5516V16.4484C14 15.5375 14 14.7825 14.0728 14.202 14.1471 13.6106 14.3148 13.0216 14.8037 12.6113 15.0048 12.4426 15.2338 12.3104 15.4805 12.2206 16.0802 12.0023 16.6741 12.1515 17.2235 12.383 17.7626 12.6101 18.4165 12.9876 19.2053 13.4431zM16.6411 13.7653C16.1992 13.5791 16.051 13.6092 15.9935 13.6302 15.9113 13.6601 15.8349 13.7042 15.7679 13.7604 15.721 13.7998 15.6209 13.913 15.5611 14.3888 15.5014 14.8646 15.5 15.5243 15.5 16.5 15.5 17.4757 15.5014 18.1354 15.5611 18.6112 15.6209 19.087 15.721 19.2002 15.7679 19.2396 15.8349 19.2958 15.9113 19.3399 15.9935 19.3698 16.051 19.3908 16.1992 19.4209 16.6411 19.2347 17.083 19.0485 17.655 18.7199 18.5 18.2321 19.345 17.7442 19.9156 17.4131 20.2978 17.1235 20.68 16.8339 20.728 16.6905 20.7386 16.6302 20.7538 16.5441 20.7538 16.4559 20.7386 16.3698 20.728 16.3095 20.68 16.1661 20.2978 15.8765 19.9156 15.5869 19.345 15.2558 18.5 14.7679 17.655 14.2801 17.083 13.9515 16.6411 13.7653zM2.25 6C2.25 6.41421 2.58579 6.75 3 6.75H13.5C13.9142 6.75 14.25 6.41421 14.25 6 14.25 5.58579 13.9142 5.25 13.5 5.25H3C2.58579 5.25 2.25 5.58579 2.25 6zM17 6C17 6.41421 17.3358 6.75 17.75 6.75H20C20.4142 6.75 20.75 6.41421 20.75 6 20.75 5.58579 20.4142 5.25 20 5.25H17.75C17.3358 5.25 17 5.58579 17 6zM20.75 10C20.75 10.4142 20.4142 10.75 20 10.75H9.5C9.08579 10.75 8.75 10.4142 8.75 10 8.75 9.58579 9.08579 9.25 9.5 9.25H20C20.4142 9.25 20.75 9.58579 20.75 10zM6 10C6 10.4142 5.66421 10.75 5.25 10.75H3C2.58579 10.75 2.25 10.4142 2.25 10 2.25 9.58579 2.58579 9.25 3 9.25H5.25C5.66421 9.25 6 9.58579 6 10z" clip-rule="evenodd"></path>
</svg>
