<svg xmlns="http://www.w3.org/2000/svg" viewBox="0 0 24 24" id="report">
  <path d="M17.7 4.7c-1.4-.7-3-.7-4.4 0-.8.4-1.8.4-2.6 0l-.4-.2c-1-.5-2.2-.6-3.4-.4l-.7.2C5 4.6 4.2 5.6 4 6.9V19c0 .6.4 1 1 1s1-.4 1-1v-4.6l1.4-.4c.7-.2 1.4-.1 2 .2l.5.2c.7.3 1.4.5 2.2.5.8 0 1.5-.2 2.3-.5.8-.4 1.8-.4 2.6 0 .7.3 1.5.3 2.1-.1.7-.4 1.1-1.1 1.1-1.9v-4c-.2-1.5-1.1-2.9-2.5-3.7zm.3 7.8c0 .1-.1.1-.1.2h-.2c-1.4-.7-3-.7-4.4 0-.8.4-1.8.4-2.6 0l-.5-.2c-.7-.3-1.4-.5-2.2-.5-.4 0-.8 0-1.2.1l-.8.2V7.2c0-.4.3-.8.7-.9l.7-.2c.7-.2 1.4-.1 2 .2l.4.2c1.4.7 3 .7 4.4 0 .8-.4 1.8-.4 2.6 0s1.2 1.2 1.2 2v4z"></path>
</svg>
