<svg xmlns="http://www.w3.org/2000/svg" enable-background="new 0 0 24 24" viewBox="0 0 24 24" id="video">
  <g>
    <path d="M5.6128,19.2437C7.7319,19.4971,9.8657,19.6235,12,19.6235s4.2681-0.1265,6.3872-0.3799
		c1.6772-0.2007,3.0391-1.5688,3.3115-3.3281c0.4023-2.5981,0.4023-5.2329,0-7.8311c-0.2725-1.7593-1.6343-3.1279-3.3115-3.3281
		c-4.2383-0.5073-8.5361-0.5073-12.7744,0C3.9355,4.9565,2.5737,6.3252,2.3013,8.0845c-0.4023,2.5981-0.4023,5.2329,0,7.8311
		C2.5737,17.6748,3.9355,19.0435,5.6128,19.2437z M4.2778,8.3911c0.1357-0.8765,0.7822-1.5542,1.5723-1.6489
		C7.8906,6.4985,9.9453,6.3765,12,6.3765s4.1094,0.1221,6.1499,0.3662c0.79,0.0942,1.4365,0.772,1.5723,1.6484
		c0.3711,2.3945,0.3711,4.8232,0,7.2178c-0.1357,0.8765-0.7822,1.5542-1.5723,1.6484c0,0,0,0,0,0.0005
		c-4.0811,0.4873-8.2188,0.4878-12.2998-0.0005c-0.79-0.0942-1.4365-0.772-1.5723-1.6484
		C3.9067,13.2144,3.9067,10.7856,4.2778,8.3911z"></path>
    <path d="M10.5283,14.8818C10.6758,14.9609,10.8384,15,11,15c0.1938,0,0.3872-0.0566,0.5547-0.168l3-2
		C14.833,12.6465,15,12.3345,15,12s-0.167-0.6465-0.4453-0.832l-3-2c-0.3076-0.2051-0.7026-0.2241-1.0264-0.0498
		C10.2031,9.2925,10,9.6313,10,10v4C10,14.3687,10.2031,14.7075,10.5283,14.8818z"></path>
  </g>
</svg>
